<?xml version="1.0" standalone="no"?>
<!DOCTYPE svg PUBLIC "-//W3C//DTD SVG 20010904//EN"
 "http://www.w3.org/TR/2001/REC-SVG-20010904/DTD/svg10.dtd">
<svg version="1.0" xmlns="http://www.w3.org/2000/svg"
 width="335.000000pt" height="335.000000pt" viewBox="0 0 335.000000 335.000000"
 preserveAspectRatio="xMidYMid meet">
<metadata>
Created by potrace 1.11, written by Peter Selinger 2001-2013
</metadata>
<g transform="translate(0.000000,335.000000) scale(0.100000,-0.100000)"
fill="#000000" stroke="none">
<path d="M144 1698 c-67 -178 -125 -333 -128 -345 -7 -23 -7 -23 114 -23 111
0 122 2 116 17 -4 10 -4 14 0 10 4 -4 34 66 67 155 33 90 63 167 66 171 4 4
37 -72 73 -170 l65 -178 121 -3 121 -3 7 27 c4 15 7 75 7 133 l0 107 93 1
c149 3 229 53 252 158 18 83 -3 168 -51 213 -39 36 -102 52 -209 52 l-99 0 3
-67 c3 -76 -6 -68 91 -72 15 0 39 -12 52 -26 35 -34 33 -78 -4 -116 -29 -28
-31 -29 -135 -28 -59 1 -108 0 -111 -2 -2 -3 21 -81 51 -174 52 -163 60 -195
49 -183 -3 3 -61 153 -129 334 l-124 329 -118 3 -119 2 -121 -322z"/>
<path d="M1317 1932 c-1 -4 -2 -70 -2 -147 1 -124 3 -140 18 -143 15 -3 17 8
17 105 l0 108 108 -114 107 -113 0 147 c0 129 -2 148 -18 156 -16 9 -17 2 -17
-103 l0 -113 -53 56 c-28 30 -76 80 -104 111 -29 31 -54 53 -56 50z"/>
<path d="M1732 1931 c-12 -4 -37 -18 -56 -33 -86 -69 -59 -228 44 -259 102
-31 194 28 199 127 1 19 -5 22 -58 23 -33 0 -62 -3 -66 -8 -8 -14 9 -21 50
-23 38 -1 40 -5 24 -42 -23 -50 -104 -68 -157 -35 -50 31 -63 120 -27 176 35
53 129 60 166 14 14 -17 19 -18 34 -7 16 11 15 14 -15 39 -17 15 -37 28 -43
28 -38 5 -75 4 -95 0z"/>
<path d="M2171 1791 c-2 -142 -1 -152 16 -149 15 3 18 15 19 83 1 44 2 90 3
103 1 24 13 13 169 -158 l42 -45 0 153 c0 140 -2 153 -17 150 -15 -3 -17 -17
-17 -111 l0 -108 -44 48 c-25 26 -73 79 -107 117 l-63 69 -1 -152z"/>
<path d="M1220 1785 c0 -90 4 -145 10 -145 6 0 13 0 18 0 4 0 8 65 8 145 2
136 0 145 -17 145 -18 0 -19 -10 -19 -145z"/>
<path d="M1960 1785 c0 -109 3 -145 13 -146 15 -1 129 -1 140 0 5 1 7 7 5 14
-3 7 -29 14 -64 17 l-59 5 0 50 1 50 57 5 c32 3 57 8 57 13 0 4 0 11 0 16 0 5
-25 8 -55 6 -58 -4 -57 -5 -57 50 0 34 3 36 60 33 45 -2 57 0 57 12 0 12 -17
16 -77 18 l-78 3 0 -146z"/>
<path d="M2498 1923 c-3 -7 -2 -243 1 -279 1 -6 8 -11 16 -11 16 0 16 4 16
172 0 125 0 125 -15 125 -8 0 -16 -3 -18 -7z"/>
<path d="M2590 1785 c0 -80 3 -145 8 -146 40 -5 142 -2 142 3 0 5 0 11 0 16 0
4 -26 9 -57 12 l-58 5 -1 53 0 52 57 0 c40 0 58 4 62 14 7 18 -7 23 -65 21
-27 -1 -49 3 -49 7 -1 4 -1 19 -1 33 0 14 0 30 1 35 0 6 24 9 56 8 35 -2 56 1
59 8 8 20 -5 24 -81 24 l-73 0 0 -145z"/>
<path d="M2800 1785 c0 -134 1 -145 19 -145 15 0 18 8 16 55 -1 30 1 59 5 65
3 5 28 -20 55 -55 35 -47 55 -65 72 -65 21 0 19 5 -27 62 -28 34 -50 65 -50
69 0 3 13 9 29 12 58 12 61 116 4 138 -13 5 -47 9 -74 9 l-49 0 0 -145z m111
105 c12 -7 19 -21 19 -40 0 -34 -7 -40 -58 -46 l-39 -4 3 47 c1 27 2 49 3 51
3 6 55 1 72 -8z"/>
<path d="M3010 1786 c0 -117 3 -145 15 -149 8 -4 17 -2 20 2 2 5 5 72 4 150 0
133 -1 141 -19 141 -19 0 -20 -8 -20 -144z"/>
<path d="M3145 1793 c-33 -75 -61 -140 -63 -145 -2 -4 5 -8 16 -8 15 0 25 12
37 43 l16 43 59 0 60 1 16 -44 c12 -30 22 -43 36 -43 11 0 18 4 16 9 -25 65
-123 281 -128 281 -3 0 -32 -62 -65 -137z m101 -32 c-5 -8 -64 -6 -72 2 -2 2
5 26 17 53 l21 49 19 -48 c11 -27 17 -52 15 -56z"/>
<path d="M1210 1478 c0 -59 3 -78 14 -78 8 0 13 10 12 28 -1 24 3 27 34 30 43
4 60 18 60 47 0 32 -20 45 -74 49 l-46 3 0 -79z m85 27 c0 -26 -49 -34 -59
-10 -9 25 3 37 32 33 19 -2 27 -9 27 -23z"/>
<path d="M2313 1548 c-5 -7 -22 -43 -36 -80 -21 -56 -23 -68 -10 -68 8 0 17 9
20 20 4 15 14 20 38 20 25 0 35 -5 40 -20 3 -11 13 -20 20 -20 11 0 8 15 -11
68 -30 79 -46 100 -61 80z m26 -58 c9 -28 8 -30 -14 -30 -22 0 -23 2 -14 30 6
17 12 30 14 30 2 0 8 -13 14 -30z"/>
<path d="M3074 1554 c-6 -3 -9 -16 -6 -30 4 -23 2 -24 -21 -15 -32 12 -56 -4
-62 -42 -9 -47 9 -67 60 -65 l45 1 0 79 c0 43 -1 78 -2 77 -2 0 -8 -3 -14 -5z
m-9 -83 c9 -29 -5 -52 -29 -49 -37 5 -34 68 3 68 11 0 22 -8 26 -19z"/>
<path d="M1905 1530 c3 -6 -1 -13 -10 -16 -13 -5 -13 -9 -3 -22 7 -8 13 -31
13 -51 0 -30 4 -37 23 -39 12 -2 22 1 22 7 0 6 -4 11 -10 11 -15 0 -12 67 3
74 10 5 10 7 0 12 -7 3 -13 12 -13 20 0 8 -7 14 -16 14 -8 0 -12 -5 -9 -10z"/>
<path d="M1391 1510 c-8 -4 -20 -6 -28 -3 -10 4 -13 -8 -13 -51 0 -31 5 -56
10 -56 11 0 11 2 14 40 2 32 13 50 32 50 10 0 13 -7 8 -24 -4 -19 1 -32 19
-50 23 -23 29 -24 56 -15 17 6 31 14 32 17 0 4 2 16 4 26 9 47 -43 85 -82 60
-19 -12 -23 -12 -30 1 -5 9 -13 11 -22 5z m104 -55 c0 -23 -5 -31 -22 -33 -17
-3 -24 3 -29 22 -8 32 3 48 29 44 17 -2 22 -10 22 -33z"/>
<path d="M1673 1494 c-19 -19 -23 -31 -18 -52 4 -15 12 -30 18 -34 19 -12 64
-9 76 5 15 19 3 28 -19 15 -19 -12 -50 -5 -50 12 0 5 18 10 40 10 42 0 51 13
28 42 -24 28 -48 29 -75 2z m55 -16 c-4 -12 -48 -20 -48 -8 0 12 13 20 33 20
10 0 17 -5 15 -12z"/>
<path d="M1796 1505 c-18 -13 -29 -65 -18 -82 13 -19 47 -31 68 -23 26 10 40
40 19 40 -8 0 -15 -5 -15 -11 0 -6 -10 -9 -22 -7 -17 2 -24 11 -26 31 -4 32
21 46 49 29 26 -17 31 -15 20 7 -13 23 -53 32 -75 16z"/>
<path d="M1996 1508 c-9 -5 -21 -21 -27 -35 -22 -58 59 -102 95 -52 33 48 -19
115 -68 87z m49 -53 c0 -25 -4 -30 -25 -30 -16 0 -26 6 -28 18 -6 30 6 49 30
45 18 -2 23 -9 23 -33z"/>
<path d="M2118 1513 c-39 -9 -28 -59 14 -65 28 -4 36 -28 9 -28 -11 0 -23 5
-27 11 -4 8 -9 8 -18 -1 -15 -15 9 -30 51 -30 24 0 33 5 39 22 7 24 -17 48
-48 48 -10 0 -18 5 -18 11 0 7 11 9 31 5 21 -4 29 -2 27 6 -5 14 -38 26 -60
21z"/>
<path d="M2543 1509 c-23 -8 -29 -20 -17 -32 4 -3 13 0 20 8 17 16 45 10 38
-9 -2 -6 -16 -13 -31 -14 -29 -2 -44 -18 -40 -42 1 -10 15 -15 43 -16 23 -1
46 -4 52 -8 5 -3 12 1 16 9 3 8 1 15 -4 15 -5 0 -10 19 -12 41 -3 46 -26 63
-65 48z m41 -74 c-6 -16 -44 -21 -44 -7 0 14 12 22 31 22 12 0 16 -5 13 -15z"/>
<path d="M2697 1514 c-3 -3 -17 -6 -33 -7 -29 -2 -28 1 -25 -82 2 -45 26 -28
26 18 0 36 3 42 23 45 20 3 22 -1 22 -42 0 -31 4 -46 13 -46 12 0 15 35 8 96
-1 13 -26 26 -34 18z"/>
<path d="M2893 1509 c-23 -8 -33 -39 -13 -39 6 0 10 5 10 10 0 6 12 10 26 10
35 0 26 -22 -11 -27 -56 -8 -59 -64 -4 -64 13 0 37 1 53 1 22 -1 27 2 18 12
-6 7 -12 31 -14 52 -3 43 -27 59 -65 45z m42 -68 c3 -6 -3 -15 -14 -21 -21
-11 -37 2 -26 20 8 13 32 13 40 1z"/>
<path d="M3148 1508 c-16 -5 -28 -13 -29 -16 0 -4 -2 -17 -5 -30 -6 -31 36
-73 66 -65 24 6 50 41 47 63 -6 41 -40 61 -79 48z m48 -45 c8 -32 -20 -60 -43
-42 -14 12 -18 51 -6 62 16 17 43 6 49 -20z"/>
<path d="M3273 1512 c-45 -7 -36 -54 12 -66 14 -4 25 -11 25 -16 0 -14 -34
-12 -48 2 -15 15 -24 6 -16 -16 8 -21 67 -22 84 -1 18 22 6 42 -30 50 -17 4
-29 12 -27 18 5 13 11 13 40 2 10 -4 17 -3 17 4 0 15 -31 28 -57 23z"/>
<path d="M1556 1453 l23 -58 -22 -17 -22 -18 26 0 c23 0 30 8 57 76 25 61 27
75 14 72 -9 -2 -20 -18 -26 -36 -11 -41 -19 -41 -31 0 -6 18 -17 34 -27 36
-14 3 -13 -4 8 -55z"/>
<path d="M2400 1505 c0 -27 37 -105 50 -105 15 0 57 96 46 107 -10 10 -25 -8
-31 -37 -8 -39 -18 -38 -30 2 -9 27 -35 52 -35 33z"/>
<path d="M2760 1500 c0 -5 12 -10 26 -10 l26 0 -31 -39 c-17 -21 -31 -42 -31
-45 0 -3 23 -6 50 -6 54 0 69 17 20 22 l-31 3 30 35 c17 19 30 38 31 43 0 4
-20 7 -45 7 -25 0 -45 -4 -45 -10z"/>
</g>
</svg>
