<?xml version="1.0" encoding="utf-8"?>
<!-- Generator: Adobe Illustrator 16.0.0, SVG Export Plug-In . SVG Version: 6.00 Build 0)  -->
<!DOCTYPE svg PUBLIC "-//W3C//DTD SVG 1.1//EN" "http://www.w3.org/Graphics/SVG/1.1/DTD/svg11.dtd">
<svg version="1.1" id="Capa_1" xmlns="http://www.w3.org/2000/svg" xmlns:xlink="http://www.w3.org/1999/xlink" x="0px" y="0px"
	 width="335px" height="71px" viewBox="0 0 335 71" enable-background="new 0 0 335 71" xml:space="preserve">
<g>
	<g>
		<g>
			<path fill="#347ABD" d="M122.192,39.313V10.048h3.476v29.265H122.192z"/>
			<path fill="#347ABD" d="M131.656,39.061V8.637l21.405,23.387V9.797h3.32v30.401L134.972,17.07v21.99H131.656z"/>
			<path fill="#347ABD" d="M179.809,24.202h12.069v0.979c0,4.61-1.306,8.247-3.913,10.911c-2.612,2.667-6.179,3.999-10.692,3.999
				c-1.377,0-2.687-0.146-3.933-0.438c-1.243-0.294-2.394-0.721-3.447-1.279c-2.4-1.321-4.252-3.143-5.557-5.469
				c-1.307-2.323-1.957-4.967-1.957-7.924c0-2.439,0.385-4.64,1.167-6.607c0.78-1.969,1.956-3.696,3.525-5.186
				c1.319-1.254,2.855-2.199,4.601-2.84c1.745-0.64,3.679-0.964,5.796-0.964c2.814,0,5.253,0.511,7.32,1.532
				c2.061,1.021,3.773,2.557,5.135,4.609L187,17.865c-1.053-1.771-2.364-3.102-3.93-3.989c-1.579-0.886-3.402-1.329-5.484-1.329
				c-3.398,0-6.153,1.146-8.272,3.438c-2.121,2.293-3.178,5.292-3.178,8.997c0,3.491,1.079,6.357,3.229,8.594
				c2.146,2.239,4.895,3.357,8.221,3.357c2.935,0,5.371-0.889,7.327-2.664c1.953-1.781,3.038-4.098,3.247-6.947h-8.352V24.202z"/>
			<path fill="#347ABD" d="M196.121,39.313V10.048h15.434v3.179h-11.959v8.396h11.959v3.239h-11.959v11.213h11.959v3.238H196.121z"
				/>
			<path fill="#347ABD" d="M217.273,39.313V8.89l21.406,23.388V10.048h3.321V40.45l-21.409-23.124v21.986H217.273z"/>
			<path fill="#347ABD" d="M249.696,39.313V10.048h3.476v29.265H249.696z"/>
			<path fill="#347ABD" d="M259.007,39.313V10.048h15.434v3.179h-11.952v8.396h11.952v3.239h-11.952v11.213h11.952v3.238H259.007z"
				/>
			<path fill="#347ABD" d="M280.117,39.313V10.048h6.874c1.96,0,3.394,0.111,4.31,0.329c0.915,0.223,1.717,0.597,2.407,1.128
				c0.869,0.683,1.542,1.594,2.02,2.731c0.479,1.142,0.723,2.401,0.723,3.787c0,2.398-0.674,4.224-2.013,5.468
				c-1.339,1.248-3.3,1.868-5.886,1.868h-0.622l11.173,13.953h-4.41l-10.676-13.953h-0.501v13.953H280.117z M283.516,12.985v9.795
				h2.657c2.721,0,4.535-0.349,5.458-1.047c0.92-0.702,1.38-1.925,1.38-3.669c0-1.877-0.474-3.195-1.419-3.947
				c-0.946-0.754-2.753-1.132-5.419-1.132H283.516z"/>
			<path fill="#347ABD" d="M301.264,39.313V10.048h3.479v29.265H301.264z"/>
			<path fill="#347ABD" d="M321.063,8.89l13.312,30.423h-3.774l-3.802-8.976h-11.431l-3.8,8.976h-3.78L321.063,8.89z
				 M321.063,16.585l-4.657,10.776h9.313L321.063,16.585z"/>
		</g>
		<g>
			<g>
				<path fill="#858584" d="M120.826,47.727h6.764c1.091,0,1.98,0.153,2.659,0.466c0.69,0.314,1.218,0.71,1.592,1.183
					c0.382,0.465,0.625,0.994,0.764,1.547c0.137,0.563,0.208,1.075,0.208,1.547c0,0.476-0.07,0.99-0.208,1.537
					c-0.139,0.553-0.381,1.071-0.764,1.527c-0.374,0.478-0.902,0.87-1.592,1.183c-0.679,0.309-1.568,0.459-2.659,0.459h-4.076v5.882
					h-2.688V47.727z M123.514,54.987h3.924c0.298,0,0.598-0.047,0.922-0.13c0.321-0.086,0.61-0.229,0.874-0.425
					c0.261-0.19,0.48-0.445,0.634-0.765c0.179-0.329,0.254-0.729,0.254-1.222c0-0.501-0.064-0.91-0.209-1.239
					c-0.141-0.332-0.343-0.59-0.584-0.787c-0.242-0.199-0.526-0.33-0.837-0.394c-0.318-0.073-0.647-0.115-1.008-0.115h-3.97V54.987z
					"/>
				<path fill="#858584" d="M134.8,51.95h2.297v2.146h0.045c0.074-0.301,0.212-0.591,0.424-0.875c0.213-0.282,0.457-0.55,0.742-0.79
					c0.3-0.231,0.623-0.417,0.987-0.56c0.359-0.141,0.713-0.22,1.095-0.22c0.283,0,0.488,0.017,0.59,0.021
					c0.1,0.016,0.219,0.03,0.336,0.052v2.349c-0.181-0.022-0.357-0.051-0.537-0.068c-0.163-0.019-0.348-0.028-0.524-0.028
					c-0.407,0-0.8,0.082-1.164,0.233c-0.364,0.176-0.689,0.418-0.964,0.739c-0.269,0.33-0.477,0.716-0.645,1.19
					c-0.15,0.468-0.23,1.011-0.23,1.625v5.291H134.8V51.95z"/>
				<path fill="#858584" d="M147.069,63.363c-0.886,0-1.688-0.15-2.382-0.445c-0.692-0.289-1.275-0.691-1.76-1.216
					c-0.471-0.514-0.843-1.124-1.093-1.847c-0.254-0.715-0.372-1.505-0.372-2.357c0-0.848,0.118-1.639,0.372-2.343
					c0.25-0.715,0.622-1.334,1.093-1.846c0.484-0.519,1.067-0.921,1.76-1.222c0.693-0.292,1.496-0.436,2.382-0.436
					c0.892,0,1.672,0.144,2.37,0.436c0.698,0.301,1.284,0.703,1.757,1.222c0.475,0.512,0.85,1.131,1.104,1.846
					c0.247,0.704,0.369,1.495,0.369,2.343c0,0.853-0.122,1.643-0.369,2.357c-0.255,0.723-0.63,1.333-1.104,1.847
					c-0.473,0.524-1.059,0.927-1.757,1.216C148.741,63.213,147.961,63.363,147.069,63.363z M147.069,61.425
					c0.536,0,1.02-0.115,1.406-0.345c0.404-0.232,0.742-0.527,0.999-0.898c0.259-0.37,0.444-0.794,0.57-1.254
					c0.126-0.476,0.182-0.941,0.182-1.43c0-0.474-0.056-0.949-0.182-1.427c-0.126-0.472-0.312-0.887-0.57-1.254
					c-0.257-0.361-0.595-0.655-0.999-0.889c-0.387-0.228-0.87-0.346-1.406-0.346c-0.553,0-1.022,0.118-1.416,0.346
					c-0.413,0.233-0.734,0.527-0.989,0.889c-0.262,0.367-0.45,0.782-0.563,1.254c-0.129,0.478-0.186,0.953-0.186,1.427
					c0,0.488,0.057,0.954,0.186,1.43c0.112,0.46,0.301,0.884,0.563,1.254c0.255,0.371,0.576,0.666,0.989,0.898
					C146.047,61.31,146.517,61.425,147.069,61.425z"/>
				<path fill="#858584" d="M153.486,51.95h2.697l2.897,8.291h0.026l2.82-8.291h2.557l-4.318,11.712
					c-0.204,0.499-0.397,0.972-0.593,1.424c-0.193,0.468-0.422,0.877-0.705,1.218c-0.287,0.357-0.633,0.632-1.035,0.84
					c-0.428,0.216-0.952,0.314-1.593,0.314c-0.577,0-1.151-0.036-1.693-0.132v-2.049c0.183,0.022,0.381,0.05,0.57,0.087
					c0.192,0.038,0.377,0.049,0.583,0.049c0.291,0,0.525-0.035,0.704-0.1c0.19-0.083,0.346-0.176,0.463-0.315
					c0.133-0.131,0.23-0.293,0.323-0.481c0.071-0.188,0.153-0.402,0.23-0.642l0.279-0.87L153.486,51.95z"/>
				<path fill="#858584" d="M167.767,58.14c0,0.431,0.062,0.837,0.184,1.248c0.131,0.4,0.306,0.746,0.55,1.057
					c0.247,0.292,0.546,0.534,0.918,0.717c0.373,0.174,0.82,0.264,1.338,0.264c0.712,0,1.291-0.158,1.727-0.461
					c0.433-0.306,0.76-0.766,0.978-1.388h2.321c-0.128,0.605-0.354,1.14-0.673,1.612c-0.313,0.476-0.688,0.863-1.136,1.19
					c-0.438,0.319-0.944,0.569-1.49,0.74c-0.552,0.151-1.122,0.244-1.727,0.244c-0.887,0-1.644-0.15-2.333-0.429
					c-0.664-0.295-1.23-0.692-1.699-1.2c-0.463-0.527-0.799-1.145-1.05-1.86c-0.24-0.711-0.358-1.494-0.358-2.366
					c0-0.779,0.133-1.531,0.381-2.228c0.248-0.718,0.612-1.333,1.072-1.877c0.459-0.529,1.028-0.972,1.679-1.275
					c0.672-0.314,1.413-0.476,2.241-0.476c0.875,0,1.655,0.184,2.354,0.548c0.689,0.363,1.268,0.851,1.726,1.453
					c0.46,0.604,0.793,1.297,1.007,2.072c0.195,0.78,0.255,1.583,0.151,2.414H167.767z M173.48,56.531
					c-0.026-0.391-0.106-0.755-0.242-1.13c-0.139-0.349-0.329-0.665-0.564-0.923c-0.227-0.268-0.522-0.483-0.863-0.644
					c-0.325-0.167-0.707-0.252-1.122-0.252c-0.43,0-0.824,0.085-1.168,0.229c-0.351,0.153-0.658,0.367-0.907,0.62
					c-0.247,0.27-0.444,0.583-0.595,0.934c-0.152,0.359-0.234,0.745-0.252,1.165H173.48z"/>
				<path fill="#858584" d="M185.288,55.666c-0.097-0.679-0.375-1.202-0.825-1.556c-0.448-0.349-1.018-0.527-1.704-0.527
					c-0.317,0-0.642,0.058-1.015,0.173c-0.36,0.1-0.68,0.304-0.987,0.591c-0.293,0.299-0.547,0.706-0.759,1.231
					c-0.194,0.521-0.287,1.204-0.287,2.043c0,0.459,0.047,0.919,0.156,1.386c0.104,0.445,0.275,0.849,0.519,1.211
					c0.229,0.36,0.538,0.651,0.919,0.87c0.368,0.227,0.816,0.337,1.343,0.337c0.712,0,1.315-0.227,1.766-0.668
					c0.475-0.436,0.762-1.057,0.875-1.863h2.457c-0.237,1.439-0.787,2.553-1.643,3.311c-0.879,0.772-2.021,1.159-3.455,1.159
					c-0.876,0-1.641-0.15-2.307-0.445c-0.673-0.289-1.231-0.691-1.686-1.2c-0.457-0.511-0.8-1.119-1.042-1.813
					c-0.233-0.708-0.351-1.467-0.351-2.284c0-0.823,0.106-1.61,0.342-2.331c0.227-0.731,0.575-1.375,1.033-1.905
					c0.448-0.535,1.023-0.962,1.703-1.271c0.679-0.309,1.477-0.461,2.393-0.461c0.642,0,1.255,0.079,1.838,0.25
					c0.577,0.158,1.099,0.398,1.549,0.743c0.457,0.325,0.812,0.739,1.103,1.24c0.285,0.501,0.457,1.102,0.522,1.78H185.288z"/>
				<path fill="#858584" d="M188.62,51.95h1.843v-3.324h2.442v3.324h2.22v1.823h-2.22v5.933c0,0.251,0.026,0.476,0.046,0.66
					c0.017,0.196,0.065,0.35,0.146,0.481c0.08,0.122,0.19,0.225,0.35,0.291c0.163,0.06,0.376,0.088,0.645,0.088
					c0.182,0,0.352,0,0.527-0.007c0.165,0,0.341-0.031,0.507-0.072v1.89c-0.27,0.02-0.532,0.051-0.783,0.082
					c-0.26,0.032-0.528,0.046-0.803,0.046c-0.65,0-1.168-0.063-1.558-0.177c-0.386-0.137-0.703-0.31-0.927-0.542
					c-0.221-0.242-0.371-0.533-0.451-0.899c-0.069-0.349-0.125-0.765-0.141-1.214v-6.56h-1.843V51.95z"/>
				<path fill="#858584" d="M201.975,63.363c-0.882,0-1.678-0.15-2.379-0.445c-0.69-0.289-1.272-0.691-1.75-1.216
					c-0.488-0.514-0.846-1.124-1.103-1.847c-0.248-0.715-0.375-1.505-0.375-2.357c0-0.848,0.127-1.639,0.375-2.343
					c0.257-0.715,0.614-1.334,1.103-1.846c0.478-0.519,1.06-0.921,1.75-1.222c0.701-0.292,1.497-0.436,2.379-0.436
					c0.904,0,1.682,0.144,2.374,0.436c0.688,0.301,1.286,0.703,1.755,1.222c0.492,0.512,0.852,1.131,1.096,1.846
					c0.26,0.704,0.382,1.495,0.382,2.343c0,0.853-0.122,1.643-0.382,2.357c-0.244,0.723-0.604,1.333-1.096,1.847
					c-0.469,0.524-1.066,0.927-1.755,1.216C203.656,63.213,202.879,63.363,201.975,63.363z M201.975,61.425
					c0.543,0,1.016-0.115,1.419-0.345c0.402-0.232,0.738-0.527,0.994-0.898c0.252-0.37,0.438-0.794,0.564-1.254
					c0.117-0.476,0.186-0.941,0.186-1.43c0-0.474-0.068-0.949-0.186-1.427c-0.127-0.472-0.313-0.887-0.564-1.254
					c-0.256-0.361-0.592-0.655-0.994-0.889c-0.403-0.228-0.876-0.346-1.419-0.346c-0.545,0-1.021,0.118-1.411,0.346
					c-0.411,0.233-0.726,0.527-1.006,0.889c-0.246,0.367-0.443,0.782-0.56,1.254c-0.104,0.478-0.175,0.953-0.175,1.427
					c0,0.488,0.07,0.954,0.175,1.43c0.116,0.46,0.313,0.884,0.56,1.254c0.28,0.371,0.595,0.666,1.006,0.898
					C200.954,61.31,201.43,61.425,201.975,61.425z"/>
				<path fill="#858584" d="M211.471,59.498c0.064,0.713,0.335,1.218,0.809,1.487c0.468,0.301,1.038,0.439,1.702,0.439
					c0.224,0,0.483-0.019,0.788-0.061c0.293-0.029,0.562-0.098,0.825-0.203c0.247-0.089,0.469-0.232,0.629-0.438
					c0.165-0.199,0.246-0.447,0.227-0.767c-0.015-0.314-0.136-0.563-0.346-0.767c-0.206-0.199-0.484-0.355-0.823-0.492
					c-0.328-0.11-0.719-0.219-1.146-0.297c-0.438-0.086-0.883-0.18-1.313-0.277c-0.447-0.107-0.896-0.224-1.325-0.378
					c-0.419-0.141-0.805-0.328-1.132-0.571c-0.34-0.254-0.599-0.56-0.804-0.938c-0.207-0.377-0.309-0.842-0.309-1.402
					c0-0.599,0.145-1.11,0.437-1.516c0.308-0.41,0.676-0.738,1.119-0.987c0.459-0.247,0.956-0.429,1.501-0.535
					c0.566-0.092,1.09-0.144,1.585-0.144c0.571,0,1.121,0.063,1.634,0.184c0.536,0.122,1.007,0.322,1.425,0.596
					c0.411,0.265,0.779,0.63,1.058,1.06c0.278,0.438,0.442,0.965,0.528,1.586h-2.559c-0.117-0.599-0.385-0.997-0.81-1.191
					c-0.429-0.189-0.902-0.303-1.443-0.303c-0.175,0-0.389,0.018-0.613,0.049c-0.238,0.021-0.457,0.077-0.674,0.158
					c-0.203,0.078-0.381,0.197-0.514,0.337c-0.148,0.155-0.222,0.352-0.222,0.592c0,0.305,0.102,0.562,0.305,0.735
					c0.215,0.181,0.484,0.337,0.825,0.458c0.337,0.127,0.718,0.229,1.147,0.314c0.431,0.091,0.866,0.185,1.324,0.279
					c0.45,0.103,0.891,0.223,1.315,0.362c0.431,0.145,0.807,0.336,1.15,0.577c0.341,0.248,0.607,0.555,0.811,0.935
					c0.208,0.374,0.317,0.823,0.317,1.373c0,0.658-0.153,1.217-0.452,1.672c-0.297,0.459-0.695,0.831-1.166,1.115
					c-0.482,0.282-1.016,0.497-1.604,0.625c-0.595,0.134-1.169,0.198-1.738,0.198c-0.708,0-1.351-0.093-1.941-0.244
					c-0.598-0.159-1.115-0.391-1.547-0.719c-0.439-0.32-0.788-0.729-1.04-1.202c-0.246-0.475-0.386-1.054-0.392-1.7H211.471z"/>
				<path fill="#858584" d="M231.187,47.727h2.855l5.9,15.33h-2.872l-1.441-4.05h-6.124l-1.441,4.05h-2.758L231.187,47.727z
					 M230.231,56.949h4.688l-2.294-6.58h-0.066L230.231,56.949z"/>
				<path fill="#858584" d="M239.572,51.95h2.661l2.821,8.524h0.043l2.705-8.524h2.542l-3.983,11.106h-2.739L239.572,51.95z"/>
				<path fill="#858584" d="M261.121,60.59c0,0.293,0.038,0.511,0.106,0.637c0.088,0.131,0.231,0.198,0.47,0.198
					c0.078,0,0.157,0,0.259,0c0.097,0,0.205-0.009,0.346-0.038v1.684c-0.093,0.031-0.201,0.066-0.336,0.11
					c-0.143,0.032-0.274,0.066-0.421,0.09c-0.145,0.028-0.285,0.048-0.424,0.065c-0.146,0.02-0.275,0.027-0.369,0.027
					c-0.5,0-0.928-0.107-1.241-0.307c-0.34-0.205-0.546-0.555-0.648-1.059c-0.49,0.484-1.084,0.822-1.796,1.039
					c-0.712,0.21-1.391,0.326-2.049,0.326c-0.5,0-0.976-0.079-1.446-0.212c-0.448-0.13-0.85-0.34-1.2-0.594
					c-0.348-0.263-0.627-0.607-0.848-1.016c-0.198-0.403-0.314-0.884-0.314-1.427c0-0.684,0.124-1.245,0.391-1.677
					c0.245-0.431,0.573-0.768,0.981-1.01c0.406-0.245,0.87-0.416,1.365-0.522c0.521-0.108,1.021-0.19,1.549-0.242
					c0.435-0.087,0.859-0.158,1.261-0.181c0.401-0.043,0.756-0.104,1.072-0.19c0.298-0.086,0.544-0.222,0.723-0.393
					c0.178-0.183,0.27-0.45,0.27-0.813c0-0.311-0.076-0.57-0.229-0.766c-0.141-0.212-0.331-0.356-0.556-0.467
					c-0.219-0.1-0.467-0.182-0.737-0.215c-0.264-0.04-0.536-0.058-0.772-0.058c-0.7,0-1.26,0.149-1.702,0.433
					c-0.438,0.284-0.691,0.729-0.755,1.325h-2.444c0.041-0.701,0.221-1.302,0.515-1.775c0.299-0.475,0.682-0.855,1.147-1.134
					c0.465-0.289,0.991-0.494,1.579-0.611c0.583-0.107,1.199-0.168,1.806-0.168c0.543,0,1.076,0.061,1.613,0.168
					c0.522,0.117,1.002,0.308,1.43,0.562c0.416,0.264,0.764,0.589,1.009,1.003c0.266,0.405,0.398,0.897,0.398,1.491V60.59z
					 M258.676,57.498c-0.378,0.239-0.839,0.379-1.378,0.437c-0.546,0.052-1.086,0.127-1.624,0.222
					c-0.267,0.052-0.522,0.1-0.763,0.188c-0.241,0.078-0.458,0.184-0.64,0.318c-0.191,0.148-0.337,0.313-0.438,0.534
					c-0.121,0.224-0.167,0.503-0.167,0.816c0,0.263,0.078,0.498,0.234,0.681c0.154,0.181,0.348,0.34,0.565,0.444
					c0.225,0.104,0.47,0.182,0.728,0.219c0.271,0.044,0.502,0.067,0.722,0.067c0.276,0,0.571-0.038,0.891-0.104
					c0.313-0.078,0.61-0.194,0.89-0.363c0.281-0.175,0.505-0.395,0.693-0.667c0.184-0.255,0.286-0.584,0.286-0.968V57.498z"/>
				<path fill="#858584" d="M263.759,51.95h2.316v1.633l0.05,0.049c0.368-0.621,0.858-1.104,1.458-1.452
					c0.602-0.359,1.269-0.527,1.999-0.527c1.225,0,2.168,0.315,2.875,0.944c0.703,0.63,1.052,1.583,1.052,2.836v7.624h-2.448v-6.985
					c-0.032-0.863-0.218-1.5-0.557-1.892c-0.346-0.397-0.888-0.597-1.61-0.597c-0.418,0-0.789,0.085-1.11,0.229
					c-0.348,0.153-0.615,0.367-0.845,0.62c-0.228,0.27-0.413,0.583-0.543,0.934c-0.133,0.359-0.189,0.739-0.189,1.14v6.551h-2.447
					V51.95z"/>
				<path fill="#858584" d="M275.698,51.95h9.019v1.718l-6.353,7.458h6.674v1.931h-9.766v-1.722l6.131-7.449h-5.705V51.95z"/>
				<path fill="#858584" d="M296.127,60.59c0,0.293,0.031,0.511,0.116,0.637c0.069,0.131,0.229,0.198,0.454,0.198
					c0.07,0,0.162,0,0.258,0c0.103,0,0.224-0.009,0.346-0.038v1.684c-0.098,0.031-0.199,0.066-0.338,0.11
					c-0.137,0.032-0.27,0.066-0.416,0.09c-0.131,0.028-0.282,0.048-0.42,0.065c-0.15,0.02-0.264,0.027-0.382,0.027
					c-0.495,0-0.898-0.107-1.234-0.307c-0.333-0.205-0.548-0.555-0.649-1.059c-0.484,0.484-1.089,0.822-1.79,1.039
					c-0.707,0.21-1.396,0.326-2.056,0.326c-0.493,0-0.974-0.079-1.432-0.212c-0.464-0.13-0.871-0.34-1.219-0.594
					c-0.35-0.263-0.617-0.607-0.843-1.016c-0.197-0.403-0.304-0.884-0.304-1.427c0-0.684,0.124-1.245,0.372-1.677
					c0.251-0.431,0.577-0.768,0.995-1.01c0.402-0.245,0.863-0.416,1.379-0.522c0.507-0.108,1.016-0.19,1.531-0.242
					c0.445-0.087,0.868-0.158,1.265-0.181c0.395-0.043,0.759-0.104,1.065-0.19c0.299-0.086,0.543-0.222,0.729-0.393
					c0.177-0.183,0.261-0.45,0.261-0.813c0-0.311-0.077-0.57-0.217-0.766c-0.152-0.212-0.336-0.356-0.553-0.467
					c-0.224-0.1-0.476-0.182-0.752-0.215c-0.272-0.04-0.527-0.058-0.767-0.058c-0.686,0-1.256,0.149-1.703,0.433
					c-0.435,0.284-0.683,0.729-0.739,1.325h-2.453c0.035-0.701,0.21-1.302,0.507-1.775c0.311-0.475,0.688-0.855,1.139-1.134
					c0.489-0.289,1.01-0.494,1.585-0.611c0.593-0.107,1.205-0.168,1.81-0.168c0.539,0,1.088,0.061,1.615,0.168
					c0.528,0.117,1.005,0.308,1.426,0.562c0.418,0.264,0.764,0.589,1.021,1.003c0.259,0.405,0.393,0.897,0.393,1.491V60.59z
					 M293.676,57.498c-0.372,0.239-0.837,0.379-1.382,0.437c-0.537,0.052-1.082,0.127-1.628,0.222
					c-0.257,0.052-0.505,0.1-0.749,0.188c-0.241,0.078-0.465,0.184-0.646,0.318c-0.183,0.148-0.323,0.313-0.437,0.534
					c-0.109,0.224-0.169,0.503-0.169,0.816c0,0.263,0.083,0.498,0.234,0.681c0.161,0.181,0.357,0.34,0.576,0.444
					c0.227,0.104,0.45,0.182,0.73,0.219c0.261,0.044,0.502,0.067,0.711,0.067c0.272,0,0.564-0.038,0.895-0.104
					c0.308-0.078,0.604-0.194,0.883-0.363c0.269-0.175,0.52-0.395,0.703-0.667c0.169-0.255,0.278-0.584,0.278-0.968V57.498z"/>
				<path fill="#858584" d="M309.222,63.057h-2.327v-1.51h-0.036c-0.33,0.651-0.811,1.109-1.438,1.394
					c-0.626,0.278-1.296,0.423-2.005,0.423c-0.866,0-1.629-0.16-2.275-0.473c-0.652-0.3-1.207-0.716-1.628-1.257
					c-0.419-0.526-0.746-1.15-0.967-1.877c-0.207-0.72-0.329-1.501-0.329-2.328c0-1.005,0.142-1.866,0.411-2.595
					c0.28-0.737,0.646-1.328,1.094-1.81c0.445-0.469,0.964-0.815,1.547-1.035c0.573-0.22,1.168-0.337,1.757-0.337
					c0.358,0,0.704,0.028,1.075,0.103c0.346,0.059,0.694,0.168,1.014,0.298c0.333,0.147,0.639,0.336,0.919,0.556
					c0.278,0.22,0.512,0.482,0.696,0.78h0.041v-5.662h2.451V63.057z M300.671,57.621c0,0.473,0.063,0.942,0.192,1.394
					c0.113,0.462,0.306,0.869,0.544,1.227c0.268,0.357,0.583,0.642,0.964,0.859c0.387,0.22,0.846,0.324,1.37,0.324
					c0.549,0,1.012-0.115,1.414-0.345c0.388-0.232,0.708-0.527,0.965-0.898c0.258-0.37,0.439-0.794,0.554-1.254
					c0.118-0.476,0.185-0.941,0.185-1.43c0-1.233-0.278-2.195-0.825-2.881c-0.552-0.688-1.298-1.034-2.244-1.034
					c-0.572,0-1.057,0.118-1.457,0.364c-0.382,0.232-0.708,0.538-0.963,0.915c-0.246,0.372-0.432,0.812-0.537,1.291
					C300.729,56.629,300.671,57.117,300.671,57.621z"/>
				<path fill="#858584" d="M316.974,63.363c-0.885,0-1.683-0.15-2.373-0.445c-0.695-0.289-1.289-0.691-1.768-1.216
					c-0.471-0.514-0.847-1.124-1.085-1.847c-0.254-0.715-0.375-1.505-0.375-2.357c0-0.848,0.121-1.639,0.375-2.343
					c0.238-0.715,0.614-1.334,1.085-1.846c0.479-0.519,1.072-0.921,1.768-1.222c0.69-0.292,1.488-0.436,2.373-0.436
					c0.888,0,1.676,0.144,2.369,0.436c0.693,0.301,1.276,0.703,1.766,1.222c0.476,0.512,0.851,1.131,1.089,1.846
					c0.256,0.704,0.376,1.495,0.376,2.343c0,0.853-0.12,1.643-0.376,2.357c-0.238,0.723-0.613,1.333-1.089,1.847
					c-0.489,0.524-1.072,0.927-1.766,1.216C318.649,63.213,317.861,63.363,316.974,63.363z M316.974,61.425
					c0.538,0,1.013-0.115,1.42-0.345c0.393-0.232,0.727-0.527,0.985-0.898c0.259-0.37,0.448-0.794,0.576-1.254
					c0.098-0.476,0.177-0.941,0.177-1.43c0-0.474-0.079-0.949-0.177-1.427c-0.128-0.472-0.317-0.887-0.576-1.254
					c-0.259-0.361-0.593-0.655-0.985-0.889c-0.407-0.228-0.882-0.346-1.42-0.346c-0.554,0-1.018,0.118-1.425,0.346
					c-0.402,0.233-0.713,0.527-0.979,0.889c-0.262,0.367-0.451,0.782-0.566,1.254c-0.125,0.478-0.177,0.953-0.177,1.427
					c0,0.488,0.052,0.954,0.177,1.43c0.115,0.46,0.305,0.884,0.566,1.254c0.267,0.371,0.577,0.666,0.979,0.898
					C315.956,61.31,316.42,61.425,316.974,61.425z"/>
				<path fill="#858584" d="M326.456,59.498c0.081,0.713,0.35,1.218,0.816,1.487c0.484,0.301,1.046,0.439,1.698,0.439
					c0.241,0,0.493-0.019,0.801-0.061c0.286-0.029,0.552-0.098,0.812-0.203c0.268-0.089,0.469-0.232,0.643-0.438
					c0.15-0.199,0.23-0.447,0.221-0.767c-0.024-0.314-0.126-0.563-0.344-0.767c-0.219-0.199-0.493-0.355-0.829-0.492
					c-0.336-0.11-0.717-0.219-1.15-0.297c-0.421-0.086-0.858-0.18-1.301-0.277c-0.473-0.107-0.903-0.224-1.337-0.378
					c-0.415-0.141-0.805-0.328-1.129-0.571c-0.336-0.254-0.599-0.56-0.802-0.938c-0.204-0.377-0.3-0.842-0.3-1.402
					c0-0.599,0.152-1.11,0.437-1.516c0.293-0.41,0.665-0.738,1.117-0.987c0.442-0.247,0.945-0.429,1.501-0.535
					c0.549-0.092,1.088-0.144,1.584-0.144c0.57,0,1.119,0.063,1.637,0.184c0.521,0.122,0.996,0.322,1.412,0.596
					c0.423,0.265,0.774,0.63,1.062,1.06c0.28,0.438,0.452,0.965,0.525,1.586h-2.555c-0.112-0.599-0.38-0.997-0.81-1.191
					c-0.426-0.189-0.908-0.303-1.451-0.303c-0.162,0-0.382,0.018-0.608,0.049c-0.229,0.021-0.459,0.077-0.66,0.158
					c-0.213,0.078-0.392,0.197-0.526,0.337c-0.146,0.155-0.223,0.352-0.223,0.592c0,0.305,0.109,0.562,0.309,0.735
					c0.211,0.181,0.49,0.337,0.817,0.458c0.346,0.127,0.729,0.229,1.148,0.314c0.436,0.091,0.878,0.185,1.335,0.279
					c0.436,0.103,0.876,0.223,1.312,0.362c0.438,0.145,0.817,0.336,1.156,0.577c0.325,0.248,0.595,0.555,0.808,0.935
					c0.207,0.374,0.313,0.823,0.313,1.373c0,0.658-0.155,1.217-0.442,1.672c-0.317,0.459-0.705,0.831-1.183,1.115
					c-0.481,0.282-1.017,0.497-1.604,0.625c-0.582,0.134-1.168,0.198-1.732,0.198c-0.7,0-1.35-0.093-1.944-0.244
					c-0.592-0.159-1.112-0.391-1.556-0.719c-0.424-0.32-0.774-0.729-1.025-1.202c-0.249-0.475-0.381-1.054-0.393-1.7H326.456z"/>
			</g>
		</g>
	</g>
	<g>
		<linearGradient id="SVGID_1_" gradientUnits="userSpaceOnUse" x1="69.4683" y1="74.7627" x2="53.7224" y2="56.822">
			<stop  offset="0.1598" style="stop-color:#4271B4"/>
			<stop  offset="1" style="stop-color:#009CDF"/>
		</linearGradient>
		<polygon fill="url(#SVGID_1_)" points="52.045,70.07 52.045,70.07 75.897,70.07 75.894,70.063 63.988,53.359 		"/>
		<linearGradient id="SVGID_2_" gradientUnits="userSpaceOnUse" x1="63.9883" y1="59.1357" x2="75.8936" y2="59.1357">
			<stop  offset="0" style="stop-color:#009CDF"/>
			<stop  offset="1" style="stop-color:#0080C5"/>
		</linearGradient>
		<polygon fill="url(#SVGID_2_)" points="63.988,53.359 75.894,70.063 67.685,48.209 		"/>
		<linearGradient id="SVGID_3_" gradientUnits="userSpaceOnUse" x1="26.624" y1="9.0977" x2="49.9053" y2="9.0977">
			<stop  offset="0" style="stop-color:#009CDF"/>
			<stop  offset="1" style="stop-color:#0080C5"/>
		</linearGradient>
		<polygon fill="url(#SVGID_3_)" points="49.905,0.93 26.624,0.93 38.262,17.266 		"/>
		<linearGradient id="SVGID_4_" gradientUnits="userSpaceOnUse" x1="38.2617" y1="18.0122" x2="50.9741" y2="18.0122">
			<stop  offset="0" style="stop-color:#009CDF"/>
			<stop  offset="1" style="stop-color:#0080C5"/>
		</linearGradient>
		<polygon fill="url(#SVGID_4_)" points="50.974,35.095 49.945,1.008 49.905,0.937 49.914,0.93 49.905,0.93 49.905,0.93 
			38.262,17.266 		"/>
		<linearGradient id="SVGID_5_" gradientUnits="userSpaceOnUse" x1="50.1514" y1="63.8555" x2="58.0736" y2="42.6424">
			<stop  offset="0" style="stop-color:#2B315D"/>
			<stop  offset="0.7442" style="stop-color:#0080C5"/>
		</linearGradient>
		<polygon fill="url(#SVGID_5_)" points="52.045,70.07 63.988,53.359 50.974,35.095 		"/>
		<linearGradient id="SVGID_6_" gradientUnits="userSpaceOnUse" x1="59.1694" y1="40.0264" x2="52.6328" y2="23.535">
			<stop  offset="0" style="stop-color:#0080C5"/>
			<stop  offset="1" style="stop-color:#304E90"/>
		</linearGradient>
		<polygon fill="url(#SVGID_6_)" points="63.988,53.359 67.685,48.209 49.945,1.008 50.974,35.095 		"/>
		<linearGradient id="SVGID_7_" gradientUnits="userSpaceOnUse" x1="38.293" y1="18.0601" x2="38.293" y2="66.2299">
			<stop  offset="0" style="stop-color:#009CDF"/>
			<stop  offset="1" style="stop-color:#0080C5"/>
		</linearGradient>
		<polygon fill="url(#SVGID_7_)" points="50.974,35.095 38.262,17.266 25.599,35.035 24.541,70.063 38.262,32.692 51.981,70.07 
			52.038,70.07 52.045,70.07 		"/>
		<linearGradient id="SVGID_8_" gradientUnits="userSpaceOnUse" x1="25.5986" y1="17.9824" x2="38.2617" y2="17.9824">
			<stop  offset="0" style="stop-color:#009CDF"/>
			<stop  offset="1" style="stop-color:#0080C5"/>
		</linearGradient>
		<polygon fill="url(#SVGID_8_)" points="38.262,17.266 26.624,0.93 26.608,0.93 26.608,0.93 25.599,35.035 		"/>
		<linearGradient id="SVGID_9_" gradientUnits="userSpaceOnUse" x1="5.4233" y1="72.3857" x2="23.9694" y2="57.2882">
			<stop  offset="0" style="stop-color:#4271B4"/>
			<stop  offset="1" style="stop-color:#009CDF"/>
		</linearGradient>
		<polygon fill="url(#SVGID_9_)" points="0.632,70.049 0.625,70.07 24.537,70.07 12.538,53.35 		"/>
		<linearGradient id="SVGID_10_" gradientUnits="userSpaceOnUse" x1="26.9229" y1="61.7021" x2="15.6943" y2="36.6706">
			<stop  offset="0" style="stop-color:#2B315D"/>
			<stop  offset="0.5413" style="stop-color:#0080C5"/>
		</linearGradient>
		<polygon fill="url(#SVGID_10_)" points="12.538,53.35 24.537,70.07 24.541,70.07 24.541,70.063 25.599,35.035 		"/>
		<linearGradient id="SVGID_11_" gradientUnits="userSpaceOnUse" x1="0.6318" y1="59.1211" x2="12.5381" y2="59.1211">
			<stop  offset="0" style="stop-color:#009CDF"/>
			<stop  offset="1" style="stop-color:#0080C5"/>
		</linearGradient>
		<polygon fill="url(#SVGID_11_)" points="8.846,48.192 0.632,70.049 12.538,53.35 		"/>
		<linearGradient id="SVGID_12_" gradientUnits="userSpaceOnUse" x1="14.0068" y1="46.0645" x2="21.0355" y2="29.7477">
			<stop  offset="0" style="stop-color:#0080C5"/>
			<stop  offset="1" style="stop-color:#304E90"/>
		</linearGradient>
		<polygon fill="url(#SVGID_12_)" points="25.599,35.035 26.608,0.93 26.608,0.93 26.608,0.937 8.846,48.192 12.538,53.35 		"/>
		<linearGradient id="SVGID_13_" gradientUnits="userSpaceOnUse" x1="98.6836" y1="27.0762" x2="112.4619" y2="27.0762">
			<stop  offset="0" style="stop-color:#009CDF"/>
			<stop  offset="1" style="stop-color:#0080C5"/>
		</linearGradient>
		<path fill="url(#SVGID_13_)" d="M103.636,39.642c0.968-0.607,1.877-1.285,2.687-2.044c4.094-3.831,6.14-9.158,6.14-15.962
			c0-2.608-0.304-4.985-0.874-7.125L98.684,32.667L103.636,39.642z"/>
		<linearGradient id="SVGID_14_" gradientUnits="userSpaceOnUse" x1="80.8853" y1="16.7983" x2="111.5879" y2="16.7983">
			<stop  offset="0" style="stop-color:#009CDF"/>
			<stop  offset="1" style="stop-color:#0080C5"/>
		</linearGradient>
		<path fill="url(#SVGID_14_)" d="M85.981,14.77c4.055,0.723,7.155,4.269,7.155,8.508l0,0c0,0.478-0.052,0.941-0.127,1.393
			l5.675,7.997l12.904-18.156c-0.894-3.285-2.479-6.017-4.756-8.203c-3.764-3.589-9.414-5.378-16.961-5.378h-4.565l-4.42,6.647
			L85.981,14.77z"/>
		<linearGradient id="SVGID_15_" gradientUnits="userSpaceOnUse" x1="91.1982" y1="37.9434" x2="103.6357" y2="37.9434">
			<stop  offset="0" style="stop-color:#0080C5"/>
			<stop  offset="1" style="stop-color:#304E90"/>
		</linearGradient>
		<path fill="url(#SVGID_15_)" d="M98.684,32.667l-7.485,10.552c5.06-0.374,9.211-1.564,12.438-3.577L98.684,32.667z"/>
		<path fill="#0080C5" d="M84.497,14.641c0.516,0,1.009,0.054,1.484,0.129l-5.096-7.192l-4.708,7.063h5.918H84.497z"/>
		<linearGradient id="SVGID_16_" gradientUnits="userSpaceOnUse" x1="65.0161" y1="34.0098" x2="98.6836" y2="34.0098">
			<stop  offset="0" style="stop-color:#2B315D"/>
			<stop  offset="0.5413" style="stop-color:#0080C5"/>
		</linearGradient>
		<path fill="url(#SVGID_16_)" d="M93.009,24.67c-0.67,4.099-4.239,7.25-8.512,7.25H65.016L77.3,43.35h10.277
			c1.25,0,2.45-0.048,3.622-0.131l7.485-10.552L93.009,24.67z"/>
		<linearGradient id="SVGID_17_" gradientUnits="userSpaceOnUse" x1="76.1187" y1="7.7852" x2="80.8853" y2="7.7852">
			<stop  offset="0" style="stop-color:#0080C5"/>
			<stop  offset="1" style="stop-color:#304E90"/>
		</linearGradient>
		<polygon fill="url(#SVGID_17_)" points="76.162,0.93 76.119,0.93 76.119,14.641 76.162,14.641 76.177,14.641 80.885,7.577 		"/>
		<linearGradient id="SVGID_18_" gradientUnits="userSpaceOnUse" x1="76.1621" y1="4.2534" x2="85.3052" y2="4.2534">
			<stop  offset="0" style="stop-color:#009CDF"/>
			<stop  offset="1" style="stop-color:#0080C5"/>
		</linearGradient>
		<polygon fill="url(#SVGID_18_)" points="85.305,0.93 76.162,0.93 80.885,7.577 		"/>
		<linearGradient id="SVGID_19_" gradientUnits="userSpaceOnUse" x1="64.894" y1="50.9844" x2="77.2998" y2="50.9844">
			<stop  offset="0" style="stop-color:#009CDF"/>
			<stop  offset="1" style="stop-color:#0080C5"/>
		</linearGradient>
		<polygon fill="url(#SVGID_19_)" points="64.894,31.92 77.3,70.049 77.3,43.379 65.016,31.92 		"/>
	</g>
</g>
</svg>
